<?xml version="1.0" standalone="no"?>
<!DOCTYPE svg PUBLIC "-//W3C//DTD SVG 20010904//EN"
 "http://www.w3.org/TR/2001/REC-SVG-20010904/DTD/svg10.dtd">
<svg version="1.0" xmlns="http://www.w3.org/2000/svg"
 width="500.000000pt" height="500.000000pt" viewBox="0 0 500.000000 500.000000"
 preserveAspectRatio="xMidYMid meet">
<metadata>
Created by potrace 1.14, written by Peter Selinger 2001-2017
</metadata>
<g transform="translate(0.000000,500.000000) scale(0.100000,-0.100000)"
fill="#000000" stroke="none">
<path d="M2305 4533 c-73 -9 -75 -10 -69 -51 9 -65 13 -86 19 -132 l7 -46
-117 -22 c-64 -13 -166 -40 -227 -60 -93 -31 -111 -34 -118 -22 -4 8 -8 17 -7
20 1 3 -6 15 -15 28 -8 13 -14 32 -11 43 4 13 0 19 -11 19 -9 0 -16 4 -16 10
0 5 8 7 18 3 9 -3 6 3 -8 13 -14 10 -30 24 -35 31 -18 24 -277 -119 -428 -235
l-58 -44 22 -24 c12 -13 19 -24 15 -24 -3 0 7 -13 24 -30 17 -16 28 -30 24
-30 -4 0 4 -10 18 -22 13 -13 24 -27 23 -33 0 -5 -48 -57 -106 -115 -58 -58
-122 -125 -142 -150 -62 -76 -61 -74 -65 -62 -2 7 -9 12 -16 12 -6 0 -18 9
-26 20 -8 11 -19 20 -25 20 -5 0 -28 14 -49 30 -22 17 -43 30 -47 30 -14 0
-122 -178 -179 -295 -70 -144 -77 -165 -56 -165 8 0 20 -8 25 -17 6 -10 11
-14 11 -10 0 4 6 2 14 -5 8 -7 12 -17 9 -21 -3 -5 5 -4 17 3 17 9 21 9 15 0
-5 -9 -1 -10 16 -6 13 3 18 3 11 0 -17 -8 -5 -24 13 -17 8 3 15 0 15 -6 0 -6
7 -8 17 -4 13 5 15 3 9 -13 -20 -51 -49 -147 -61 -204 -10 -43 -34 -170 -39
-200 l-6 -36 -98 12 c-53 6 -99 9 -102 7 -10 -9 -10 -463 0 -464 6 -1 15 -3
20 -4 6 -1 13 -3 16 -4 4 0 0 -9 -7 -18 -8 -10 -9 -14 -2 -10 7 4 16 0 22 -10
6 -10 11 -13 11 -6 0 6 -5 15 -10 18 -6 4 -7 11 -4 17 4 7 9 6 14 -3 11 -16
38 -20 47 -7 3 7 1 8 -5 4 -17 -10 -15 -1 4 14 8 8 14 9 13 4 -4 -22 2 -32 18
-29 10 2 19 4 21 5 1 2 5 3 10 4 4 1 12 5 19 9 10 6 23 -31 38 -113 3 -14 7
-36 10 -50 3 -14 7 -34 9 -45 2 -11 18 -64 36 -119 17 -54 28 -102 23 -105 -4
-4 -47 -23 -96 -41 -95 -36 -94 -35 -61 -104 7 -16 11 -33 7 -39 -3 -6 -1 -7
5 -3 7 4 12 2 12 -4 0 -13 53 -121 91 -186 69 -118 95 -153 112 -154 10 0 16
-4 13 -9 -3 -5 2 -12 11 -16 10 -3 19 -1 21 4 2 6 8 9 12 6 5 -3 12 0 16 6 4
7 3 9 -4 5 -6 -3 -13 -3 -16 2 -3 5 0 9 7 10 52 7 62 10 60 16 -1 4 -5 11 -9
14 -4 4 -4 1 1 -7 5 -10 4 -12 -4 -7 -18 11 -4 24 23 21 17 -2 23 1 20 10 -8
19 47 30 58 11 5 -8 15 -22 23 -30 8 -8 15 -19 15 -25 0 -6 7 -11 15 -11 8 0
15 -4 15 -10 0 -5 12 -21 28 -37 15 -15 26 -33 24 -41 -2 -8 1 -11 8 -7 13 8
53 -29 43 -39 -4 -3 1 -6 10 -6 10 0 17 -4 17 -10 0 -5 7 -10 16 -10 9 0 18
-9 21 -20 3 -11 9 -18 13 -15 4 3 10 -2 13 -10 4 -8 -20 -47 -59 -95 -36 -44
-60 -80 -55 -80 5 0 12 -9 16 -20 3 -11 9 -19 13 -19 20 3 25 -2 12 -11 -12
-8 -11 -10 8 -10 12 0 22 -4 22 -10 0 -5 7 -10 15 -10 10 0 15 -7 13 -17 -2
-14 4 -18 25 -17 15 0 27 -5 27 -12 0 -7 5 -16 12 -20 7 -4 8 -3 4 4 -5 8 -2
10 8 6 9 -3 16 -12 16 -20 0 -8 6 -11 17 -7 12 5 15 2 10 -10 -3 -9 -1 -19 5
-23 7 -4 8 -3 4 4 -4 7 -1 12 8 12 9 0 16 -5 16 -11 0 -6 7 -8 15 -5 11 4 19
-3 25 -20 9 -23 12 -24 27 -13 14 12 15 11 9 -11 -5 -17 -4 -21 2 -11 7 10 14
11 31 2 11 -7 21 -8 21 -4 0 4 7 0 15 -11 7 -10 18 -15 23 -12 6 3 20 -6 31
-21 12 -16 18 -20 15 -10 -5 13 -2 16 10 11 9 -3 13 -11 9 -18 -4 -7 -1 -7 9
1 8 7 19 9 23 5 5 -4 5 -2 2 5 -4 6 -1 14 5 17 7 3 2 3 -12 1 -21 -5 -20 -3 7
12 30 17 31 19 15 31 -9 7 -12 10 -5 7 8 -4 16 7 21 27 6 22 14 33 26 32 11
-1 14 2 8 10 -11 13 -12 46 -1 46 4 0 10 -6 12 -12 4 -10 6 -10 6 0 1 6 6 12
12 12 5 0 7 -5 3 -11 -4 -7 5 -9 30 -6 30 4 40 1 56 -20 18 -23 20 -23 21 -7
0 11 3 14 6 6 2 -6 10 -9 16 -5 9 5 9 3 0 -8 -9 -12 -6 -14 20 -14 18 0 35 4
38 8 3 5 9 1 12 -8 5 -11 3 -14 -6 -9 -6 4 -9 3 -4 -1 10 -12 47 -14 40 -2 -3
5 4 4 15 -2 10 -6 29 -8 42 -6 16 3 24 -1 27 -15 3 -11 9 -17 14 -14 5 3 7 9
4 14 -3 5 5 7 17 5 13 -3 24 -9 26 -15 2 -5 10 -10 19 -10 9 0 13 -6 9 -17 -2
-10 -7 -40 -11 -68 -3 -27 -8 -62 -11 -77 -4 -20 -1 -28 15 -33 12 -3 21 -11
21 -17 0 -6 9 -8 20 -5 13 3 18 1 13 -6 -4 -6 0 -8 10 -4 10 3 17 2 17 -3 0
-6 5 -10 11 -10 5 0 7 5 3 12 -5 7 -3 8 6 3 7 -4 28 -11 47 -15 29 -7 34 -6
28 8 -5 12 -1 12 16 -4 19 -16 21 -17 16 -2 -4 12 -2 15 8 12 8 -3 13 -11 11
-17 -1 -7 -1 -9 1 -4 3 4 9 5 14 2 5 -4 6 2 3 12 -3 10 -2 14 3 8 8 -10 58
-35 70 -35 3 0 -5 9 -18 20 l-24 20 30 -15 c21 -10 31 -11 36 -3 4 7 9 4 12
-8 4 -15 5 -13 6 6 1 14 5 21 9 15 4 -5 14 -16 23 -22 13 -10 16 -10 16 2 0 8
-5 11 -10 8 -6 -3 -7 -1 -3 5 5 9 13 8 30 -3 21 -14 25 -14 36 0 10 12 15 13
21 4 6 -10 11 -10 23 0 11 10 12 18 4 42 -8 22 -7 33 3 46 11 13 11 15 1 9 -9
-5 -13 -3 -11 5 3 25 -1 40 -9 35 -4 -3 -8 16 -7 42 1 39 4 47 19 45 12 -1 16
4 11 14 -4 13 -3 14 10 3 11 -9 15 -9 15 -1 0 8 6 7 16 -3 21 -21 27 -20 15 3
-9 16 -7 18 15 15 14 -1 32 -8 41 -16 10 -8 14 -8 10 -1 -9 14 19 24 50 19 17
-4 20 -1 16 11 -4 11 -2 14 8 11 8 -3 13 -11 11 -18 -2 -10 0 -11 11 -2 8 7
17 9 21 5 4 -4 4 1 0 11 -5 14 -9 15 -15 4 -6 -9 -9 -9 -9 -1 0 17 17 25 25
13 5 -8 15 -6 31 5 13 8 24 13 24 9 0 -4 8 0 17 7 14 12 14 9 -2 -16 l-19 -30
22 22 c12 12 22 28 22 35 0 9 3 9 10 -2 9 -14 14 -7 11 13 -1 5 3 6 9 2 6 -3
8 -11 5 -16 -4 -5 -2 -9 3 -9 5 0 12 9 15 20 4 14 10 18 23 13 12 -5 15 -3 9
6 -6 10 -3 11 15 1 20 -11 22 -10 16 5 -5 14 -4 16 7 6 8 -6 29 -46 47 -89 34
-83 46 -102 63 -102 6 0 2 7 -9 16 -19 15 -19 15 1 6 11 -5 28 -8 38 -7 9 2
15 -1 12 -5 -3 -5 -1 -11 4 -14 5 -4 8 5 7 18 -2 16 1 23 10 19 7 -2 10 -12 7
-21 -4 -15 -3 -15 6 -2 6 8 16 15 22 15 7 0 14 7 16 15 4 13 3 13 -6 0 -6 -8
-11 -10 -11 -4 0 19 13 24 28 11 10 -8 13 -8 9 -1 -4 7 0 15 9 18 8 3 12 11 8
17 -4 8 -3 9 5 5 6 -4 17 -3 24 2 7 5 20 8 29 7 12 -2 15 2 10 13 -5 15 -3 15
10 4 10 -8 19 -9 22 -3 3 5 0 12 -6 14 -8 3 -6 6 5 6 12 1 16 5 11 13 -6 10
-4 10 8 0 13 -10 16 -9 21 9 5 17 9 19 26 10 25 -14 42 -14 18 0 -9 6 -15 15
-12 20 4 5 10 7 15 4 5 -3 11 -1 15 5 3 5 1 10 -6 10 -7 0 -10 3 -7 6 4 3 17
0 30 -7 12 -6 19 -8 15 -3 -4 4 3 14 15 22 19 11 19 12 3 7 -16 -5 -18 -4 -7
6 17 18 15 29 -5 23 -11 -4 -14 -3 -7 3 16 12 14 45 -4 38 -8 -3 -12 0 -10 7
2 6 -9 24 -25 40 -17 15 -26 28 -21 28 5 0 4 4 -1 8 -14 10 -49 66 -37 58 6
-3 14 -2 17 4 5 8 12 7 23 -2 15 -12 16 -11 3 5 -7 9 -10 18 -5 18 5 1 16 2
24 3 8 0 16 7 16 14 1 6 2 17 3 22 0 6 5 10 11 10 5 0 7 -7 4 -15 -4 -8 11 2
32 22 22 21 38 40 37 42 -2 3 -14 -6 -28 -19 -14 -13 -25 -19 -25 -14 0 5 9
15 20 22 12 7 18 17 15 21 -3 5 4 7 15 4 12 -3 20 0 20 6 0 7 -5 9 -12 5 -7
-4 -8 -3 -4 4 5 9 13 9 28 1 11 -6 18 -7 14 -1 -3 5 3 17 14 27 11 10 20 24
20 32 0 12 13 17 33 14 5 -1 6 3 2 9 -3 6 -10 8 -14 6 -4 -3 -8 1 -8 9 0 8 4
12 8 9 4 -2 13 4 19 13 9 15 10 14 5 -7 l-6 -25 14 23 c7 12 17 19 22 15 5 -4
4 -1 -2 7 -8 11 -9 20 -1 30 8 12 9 12 4 -3 -4 -11 -2 -16 5 -11 6 3 9 14 6
23 -3 13 2 17 24 17 29 -1 73 -38 61 -52 -4 -5 2 -2 13 6 11 8 17 10 13 6 -5
-5 2 -14 15 -21 12 -6 21 -17 19 -24 -1 -7 2 -10 8 -6 5 3 10 2 10 -4 0 -6 7
-8 15 -5 8 4 15 2 15 -4 0 -5 7 -13 16 -16 15 -6 15 -4 3 11 -12 15 -12 16 7
11 13 -3 21 0 22 8 1 8 3 21 4 29 1 8 6 11 11 8 6 -4 8 3 4 16 -5 19 -3 20 10
10 13 -11 14 -9 11 11 -2 16 2 24 10 23 6 -2 12 2 12 8 0 5 4 8 9 4 11 -6 7
27 -5 48 -4 6 -4 9 1 5 4 -4 14 -3 22 3 10 9 13 8 13 -1 0 -8 3 -11 6 -8 3 4
1 15 -5 27 -9 17 -8 19 7 16 11 -2 19 3 19 10 0 7 -6 11 -14 8 -7 -3 -13 -2
-13 1 0 4 12 11 26 16 20 8 24 13 15 23 -7 10 -7 19 4 34 8 11 11 23 7 27 -3
4 1 4 10 1 12 -5 17 -1 17 12 1 39 5 52 13 47 4 -3 8 -1 8 4 0 6 -7 13 -16 16
-10 4 -13 13 -9 26 4 13 2 20 -7 20 -18 0 -142 53 -146 62 -2 5 -8 6 -12 3 -5
-3 -12 -1 -15 5 -4 6 -3 10 2 9 20 -3 27 2 13 11 -10 6 -11 10 -2 10 6 0 12 5
12 11 0 5 -5 7 -12 3 -7 -4 -8 -3 -4 4 4 7 15 12 24 12 10 0 13 3 7 8 -17 12
-17 35 0 28 9 -3 13 -2 10 3 -3 5 -2 12 3 15 4 2 9 19 10 37 1 18 8 39 15 48
10 12 9 14 -7 7 -19 -7 -19 -6 -1 14 10 11 15 20 10 20 -4 0 3 8 15 18 18 14
19 19 7 19 -9 0 -14 -4 -11 -9 3 -4 1 -8 -5 -8 -5 0 -9 9 -8 19 0 11 5 19 10
18 5 -1 12 4 15 12 3 10 0 12 -14 8 -17 -6 -17 -6 -2 6 12 10 14 17 5 32 -10
20 -10 20 14 0 16 -14 20 -15 11 -3 -8 9 -12 28 -10 41 1 13 -4 32 -12 43 -9
10 -10 15 -2 10 6 -4 12 -2 12 3 0 6 5 11 11 11 8 0 7 -6 -2 -17 -13 -16 -12
-17 3 -5 9 8 14 20 11 28 -3 8 -1 14 5 14 6 0 13 -6 15 -12 4 -10 6 -10 6 0 1
6 6 12 12 12 5 0 8 -4 5 -8 -3 -5 1 -9 9 -9 8 0 12 4 9 9 -3 4 0 8 5 8 6 0 11
-4 11 -9 0 -16 29 -20 44 -6 10 10 16 11 18 4 5 -14 73 -17 73 -4 0 6 4 17 10
25 8 13 7 13 -8 1 -9 -7 -14 -18 -10 -24 3 -6 1 -7 -5 -3 -9 5 -7 14 4 31 9
14 21 22 28 18 7 -4 6 -1 -1 9 -7 8 -10 17 -8 20 3 3 1 17 -4 32 -9 22 -8 26
7 27 12 0 11 3 -6 10 -15 6 -21 13 -15 21 13 23 14 50 1 43 -7 -4 -4 1 6 9 11
9 15 16 9 16 -6 0 -9 9 -6 20 3 12 0 20 -6 20 -7 0 -9 5 -6 11 5 6 12 4 22 -8
13 -17 13 -16 4 4 -12 24 -11 73 1 73 4 0 8 5 8 12 0 9 -3 9 -12 0 -21 -21
-32 -13 -12 9 19 22 19 22 -3 11 -19 -11 -21 -9 -19 13 2 13 -1 22 -5 19 -5
-3 -9 0 -9 6 0 6 -8 9 -17 6 -10 -3 -56 -8 -103 -11 -66 -4 -81 -2 -72 7 7 7
12 17 12 23 0 5 -5 3 -11 -5 -7 -11 -9 -7 -7 18 2 21 -3 36 -12 42 -13 8 -13
10 0 10 12 0 12 2 -2 16 -12 12 -14 24 -8 50 4 19 4 36 -1 39 -4 3 -5 13 -2
22 5 12 2 15 -10 10 -15 -6 -16 -3 -7 13 6 11 7 20 3 20 -4 0 -1 5 7 11 13 9
13 10 0 6 -8 -2 -14 -10 -12 -16 1 -7 -2 -10 -8 -6 -6 3 -8 11 -5 16 12 19 13
49 3 55 -6 4 -8 3 -5 -3 3 -5 0 -10 -7 -10 -10 0 -12 8 -6 29 8 27 -3 40 -14
16 -3 -7 -3 -1 0 15 4 19 2 27 -7 27 -11 0 -11 3 1 10 13 8 12 10 -4 10 -19 0
-19 0 -1 14 11 8 16 19 12 30 -6 14 -3 15 14 5 17 -9 20 -8 14 2 -6 9 -3 11 9
6 11 -5 15 -3 10 5 -5 8 -2 9 9 5 10 -3 17 -2 17 4 0 6 5 7 12 3 8 -5 9 -2 5
10 -4 10 -3 15 4 11 5 -4 16 -2 24 5 10 9 16 7 25 -7 10 -16 11 -16 6 0 -4 13
0 17 17 17 16 0 18 3 9 9 -15 9 -15 17 -1 44 7 13 6 19 -6 23 -9 4 -14 13 -10
21 3 10 1 13 -9 10 -10 -4 -12 0 -9 14 4 14 0 19 -13 20 -18 0 -18 1 0 8 19 7
18 8 -4 14 -21 5 -22 8 -9 23 12 16 12 17 -4 11 -13 -5 -17 -3 -15 5 3 7 -1
19 -9 26 -7 8 -11 18 -8 23 4 5 -2 9 -12 9 -15 0 -16 2 -3 10 13 8 13 10 -1
10 -9 0 -19 7 -23 15 -3 8 -2 14 2 12 4 -1 8 3 9 8 1 6 -6 8 -15 7 -9 -2 -14
-1 -10 4 4 4 0 13 -10 21 -9 8 -11 12 -5 8 9 -4 11 -1 7 9 -3 9 -12 16 -20 16
-8 0 -14 10 -14 25 0 14 -5 25 -10 25 -6 0 -21 10 -34 23 l-23 23 -74 -54
c-103 -75 -103 -75 -125 -49 -19 21 -19 21 1 7 11 -7 5 1 -13 18 -20 19 -30
37 -26 44 4 7 4 10 -1 6 -10 -9 -67 51 -59 63 3 5 2 9 -3 8 -19 -3 -34 2 -29
10 3 5 -3 11 -14 14 -11 3 -20 12 -20 21 0 9 -5 16 -11 16 -5 0 -7 4 -4 10 3
5 0 7 -9 4 -9 -4 -20 5 -29 23 -9 15 -19 27 -24 27 -15 -3 -49 30 -55 53 -5
17 -2 21 14 18 16 -3 17 -1 8 10 -8 10 -8 15 1 21 8 5 10 3 4 -7 -5 -8 1 -5
13 5 28 24 28 29 0 22 -16 -4 -14 -2 5 6 15 7 27 16 27 21 0 4 -5 5 -12 1 -6
-4 -8 -3 -5 4 4 5 19 9 34 7 25 -3 26 -2 8 11 -17 12 -17 14 -2 14 9 0 17 4
17 10 0 5 -3 9 -8 7 -4 -1 -7 2 -7 8 0 5 3 9 8 8 4 -2 7 2 7 7 0 6 -4 10 -9
10 -5 0 -13 9 -16 20 -3 11 -13 20 -21 20 -8 0 -14 5 -14 10 0 6 -6 10 -14 10
-7 0 -19 7 -26 15 -25 30 -325 195 -334 184 -1 -2 -22 -50 -45 -105 l-43 -102
-52 23 c-96 42 -286 96 -390 110 -15 2 -31 6 -34 10 -9 9 -11 38 -4 49 11 18
10 90 -1 106 -9 12 -9 13 3 3 20 -19 26 -16 26 11 0 16 -4 22 -14 19 -8 -3
-15 3 -19 15 -2 11 -13 22 -24 25 -21 6 -357 6 -404 0z m188 -555 c-2 -5 1 -8
7 -8 6 0 8 -5 4 -12 -4 -7 -3 -8 5 -4 6 4 9 11 6 16 -8 13 26 21 41 9 7 -6 21
-9 32 -7 10 2 27 -4 37 -12 11 -8 16 -10 12 -3 -5 7 1 16 13 23 15 8 20 8 18
-1 -2 -6 3 -14 11 -17 8 -3 11 0 7 7 -5 7 -1 9 8 5 9 -3 13 -11 10 -18 -3 -6
2 -2 10 8 15 19 21 13 17 -19 -1 -5 6 -1 14 9 8 11 15 14 15 8 0 -7 5 -12 11
-12 5 0 7 6 4 13 -4 6 3 1 15 -13 12 -14 20 -18 17 -9 -7 23 35 17 44 -7 7
-18 8 -18 9 1 1 11 4 14 7 7 2 -6 9 -10 14 -6 5 3 9 -3 10 -13 0 -10 3 -13 6
-5 2 6 12 12 21 12 21 -1 62 -30 42 -30 -7 0 -10 -3 -7 -6 4 -4 13 -1 22 6 10
8 15 9 15 1 0 -6 6 -10 13 -9 6 2 11 -4 9 -12 -1 -10 2 -9 13 4 8 11 15 14 15
7 0 -7 4 -9 10 -6 5 3 7 0 4 -9 -4 -11 0 -13 16 -9 13 4 26 -1 36 -13 9 -11
13 -13 9 -7 -4 9 -1 11 9 7 9 -3 14 -10 11 -14 -3 -4 2 -10 10 -13 10 -4 12
-1 8 11 -6 14 -5 15 9 2 9 -8 15 -19 15 -24 -1 -4 6 -10 16 -11 9 -2 15 1 11
6 -3 5 -10 6 -16 3 -7 -5 -8 -2 -4 5 11 18 46 -16 39 -37 -4 -14 -3 -14 5 -3
13 19 63 -3 87 -38 12 -20 15 -21 11 -6 -6 18 -4 18 13 -2 11 -13 23 -23 28
-23 4 0 22 -14 40 -30 18 -17 37 -30 42 -30 10 0 15 -13 12 -32 0 -4 8 -5 19
-3 11 2 23 -1 26 -7 5 -7 2 -8 -7 -3 -8 5 3 -7 24 -27 20 -19 34 -38 30 -43
-5 -4 -3 -5 3 -2 12 7 54 -36 54 -54 0 -5 4 -8 9 -5 9 6 26 -22 22 -37 -1 -5
3 -6 8 -3 11 7 58 -64 53 -79 -2 -5 0 -7 4 -3 10 11 37 -30 28 -44 -4 -6 -3
-8 3 -5 9 6 50 -52 45 -65 -1 -5 1 -8 6 -8 14 0 70 -121 111 -240 60 -175 76
-275 76 -490 0 -149 -5 -215 -18 -280 -26 -124 -64 -245 -103 -328 -19 -41
-34 -76 -34 -78 0 -11 -107 -176 -155 -239 -221 -294 -581 -507 -945 -561 -19
-3 -46 -7 -60 -10 -40 -7 -250 -6 -315 1 -100 11 -245 45 -342 80 -120 44
-204 86 -196 98 3 6 1 7 -5 3 -11 -6 -60 18 -73 37 -3 5 -9 8 -13 8 -20 -3
-26 1 -26 15 0 8 -4 13 -8 10 -5 -3 -18 4 -30 14 -12 11 -26 20 -31 20 -5 0
-17 10 -25 22 -9 12 -16 19 -16 15 0 -4 -9 1 -21 12 -12 11 -18 24 -15 30 4 6
1 9 -6 6 -15 -6 -60 39 -50 50 4 4 2 5 -4 3 -14 -4 -85 67 -77 76 4 3 -2 6
-12 6 -10 0 -16 3 -13 6 4 3 -7 18 -23 33 -16 16 -29 32 -29 36 0 4 -8 14 -17
21 -17 13 -17 14 2 8 15 -4 13 -1 -5 10 -14 8 -21 15 -16 16 4 0 0 8 -11 18
-10 9 -12 13 -4 7 12 -9 12 -7 1 12 -8 12 -17 20 -21 17 -4 -2 -10 3 -13 12
-5 12 -2 15 11 10 16 -5 16 -4 -1 9 -10 8 -23 12 -29 8 -5 -3 -6 3 -2 17 5 15
4 20 -4 16 -6 -4 -12 0 -13 11 0 10 -2 23 -2 30 -1 7 -7 18 -14 25 -11 11 -12
9 -7 -7 5 -16 5 -17 -3 -5 -7 9 -7 18 -1 26 6 8 3 16 -8 25 -17 13 -17 13 -4
-6 14 -19 14 -19 -5 -2 -15 14 -16 19 -5 26 11 7 9 10 -8 16 -17 5 -19 10 -11
26 8 15 7 19 -4 19 -10 0 -13 6 -10 15 4 8 1 15 -5 15 -6 0 -11 4 -11 10 0 5
6 8 13 6 6 -1 9 -1 4 1 -4 3 -4 10 -1 15 4 6 2 8 -3 5 -6 -4 -16 0 -23 8 -11
13 -10 15 6 9 18 -5 18 -5 2 9 -14 11 -15 16 -5 26 7 7 8 12 2 11 -24 -5 -27
1 -9 16 10 8 13 13 7 9 -9 -4 -13 1 -13 14 0 12 -3 20 -7 19 -5 -2 -9 2 -10 7
-1 6 6 9 15 8 15 -1 15 0 1 10 -18 14 -21 46 -5 67 6 8 1 7 -11 -4 -21 -18
-22 -18 -20 2 0 11 5 18 9 16 10 -6 -2 26 -16 45 -8 11 -8 13 2 7 18 -11 14 5
-6 20 -16 13 -16 14 2 7 16 -5 17 -3 9 12 -6 10 -8 26 -6 36 3 11 0 19 -6 19
-7 0 -9 5 -6 10 4 6 9 8 13 6 4 -2 7 15 7 39 0 24 -3 41 -7 38 -5 -2 -6 -8 -3
-13 3 -5 2 -11 -3 -14 -4 -2 -8 6 -8 20 0 14 7 26 18 30 10 3 18 10 18 16 0 6
-7 5 -17 -3 -15 -13 -15 -12 -5 8 10 18 9 24 -5 32 -14 8 -15 10 -3 11 9 0 16
10 16 25 1 14 -2 23 -6 20 -5 -3 -12 0 -16 7 -4 7 -4 10 1 6 4 -4 14 0 21 10
17 22 18 38 1 24 -10 -8 -13 -6 -13 8 0 10 5 16 10 13 5 -4 7 1 3 9 -3 9 0 21
6 27 8 8 8 11 -2 11 -7 0 -9 5 -6 10 4 6 10 8 14 6 4 -3 8 1 8 8 0 8 -7 12
-16 9 -9 -2 -7 1 4 9 22 14 25 25 12 46 -5 6 -4 12 0 12 5 0 15 -6 23 -12 7
-7 3 3 -10 22 -19 28 -20 32 -4 18 18 -16 19 -15 21 9 1 19 -1 22 -8 12 -5 -8
-9 -9 -9 -3 0 6 9 23 20 37 15 18 17 28 9 33 -7 4 -9 3 -6 -3 3 -5 0 -10 -8
-10 -11 0 -12 4 -4 14 6 7 15 10 20 7 5 -3 10 5 10 18 3 56 7 72 18 76 6 2 8
9 4 15 -4 7 0 7 9 -1 14 -11 16 -10 11 9 -4 14 -2 20 4 16 6 -4 10 1 10 11 0
46 3 54 19 48 14 -5 15 -4 4 9 -9 11 -9 15 -1 15 7 0 10 3 7 8 -6 9 14 35 39
51 18 11 18 12 1 7 -16 -6 -17 -4 -6 9 7 8 9 15 5 15 -5 0 -1 8 8 18 10 10 14
22 10 26 -5 4 -3 7 2 6 23 -5 37 1 32 14 -7 18 28 50 45 41 7 -3 4 1 -7 11
-20 16 -20 16 4 11 18 -4 21 -3 13 5 -9 9 -8 16 5 30 9 10 21 18 27 18 6 0 0
-10 -14 -21 -24 -20 -9 -16 18 4 10 8 9 14 -5 30 -10 11 -13 17 -7 14 7 -4 17
0 24 8 7 8 15 13 19 11 4 -3 15 10 25 28 14 26 23 33 39 29 18 -4 19 -3 7 6
-15 10 -14 12 13 15 6 1 11 8 9 15 -2 9 4 12 17 8 18 -4 19 -2 11 14 -9 15 -8
17 7 12 13 -5 15 -3 10 11 -4 9 -3 15 2 12 5 -3 12 1 15 10 5 14 9 14 23 3 12
-10 14 -10 9 -1 -4 7 -2 12 4 12 6 0 9 3 7 8 -2 4 5 15 16 25 19 19 19 18 13
-5 -3 -12 -3 -17 0 -10 3 6 13 12 22 13 11 0 12 2 4 6 -6 2 -9 9 -6 14 3 6 11
5 20 -2 12 -10 15 -10 12 2 -2 8 -7 17 -13 21 -5 4 5 6 23 3 26 -3 32 0 28 10
-7 18 11 30 49 31 24 0 29 5 27 20 -2 10 -1 16 3 12 11 -11 47 11 39 24 -4 7
-3 8 5 4 6 -4 9 -12 6 -17 -4 -5 -1 -9 4 -9 6 0 11 10 11 23 0 12 4 17 8 12
11 -16 37 -12 35 6 -2 9 6 15 19 16 18 2 20 0 8 -7 -11 -7 -12 -10 -2 -10 8 0
16 9 19 20 3 11 9 17 14 15 4 -3 5 -13 2 -23 -4 -13 -2 -13 10 3 8 11 13 24
10 30 -4 5 -3 7 2 3 4 -4 16 -3 26 2 13 8 21 6 29 -7 11 -17 11 -17 6 0 -3 10
0 17 8 17 8 0 17 6 20 13 3 6 3 1 0 -13 l-5 -25 15 25 c9 14 16 21 16 15 0 -5
7 -2 14 8 9 12 16 14 21 8 3 -6 13 -11 21 -11 10 0 12 5 8 13 -5 7 0 6 11 -3
11 -9 16 -10 11 -2 -4 6 -2 12 3 12 6 0 11 -5 11 -11 0 -5 5 -7 10 -4 6 4 7
11 4 17 -4 7 -2 8 4 4 7 -4 12 -1 12 6 0 10 3 9 9 -2 6 -8 7 -18 5 -22 -3 -4
-1 -8 4 -8 6 0 13 7 16 16 4 10 2 13 -6 8 -7 -4 -8 -3 -4 5 6 9 11 9 24 -1 12
-10 14 -10 8 0 -11 18 5 15 21 -5 8 -10 11 -12 7 -4 -9 18 16 32 38 20 12 -7
18 -6 18 2 0 6 6 9 13 6 8 -3 19 -2 24 1 15 10 62 9 56 0z m1702 -817 c3 -5 2
-12 -3 -15 -5 -3 -9 1 -9 9 0 17 3 19 12 6z m332 -816 c0 -8 -4 -12 -9 -9 -5
3 -6 10 -3 15 9 13 12 11 12 -6z m-97 -61 c0 -8 -19 -13 -24 -6 -3 5 1 9 9 9
8 0 15 -2 15 -3z m-3767 -35 c-8 -8 -13 -7 -18 2 -5 8 -4 10 3 5 7 -4 12 -2
12 5 0 7 3 9 7 6 4 -4 2 -12 -4 -18z m3574 -297 c0 -10 -6 -19 -13 -19 -9 0
-9 5 -1 19 7 10 13 18 14 18 1 0 1 -8 0 -18z m13 -532 c0 -5 -2 -10 -4 -10 -3
0 -8 5 -11 10 -3 6 -1 10 4 10 6 0 11 -4 11 -10z m-400 -159 c0 -5 -8 -19 -18
-31 -14 -18 -19 -19 -19 -7 0 9 4 14 8 11 4 -2 10 5 14 16 7 21 15 27 15 11z
m-2486 -449 c3 -5 -1 -9 -9 -9 -8 0 -12 4 -9 9 3 4 7 8 9 8 2 0 6 -4 9 -8z
m1381 -342 c-3 -5 -1 -10 5 -10 6 0 8 -5 4 -11 -4 -8 -9 -7 -15 2 -7 12 -3 29
7 29 3 0 2 -4 -1 -10z m-51 -26 c3 -8 2 -12 -4 -9 -6 3 -10 10 -10 16 0 14 7
11 14 -7z"/>
<path d="M2451 3964 c0 -11 3 -14 6 -6 3 7 2 16 -1 19 -3 4 -6 -2 -5 -13z"/>
<path d="M2535 3970 c3 -5 8 -10 11 -10 2 0 4 5 4 10 0 6 -5 10 -11 10 -5 0
-7 -4 -4 -10z"/>
<path d="M2150 3922 c0 -5 7 -9 15 -9 8 0 12 4 9 9 -3 4 -9 8 -15 8 -5 0 -9
-4 -9 -8z"/>
<path d="M2918 3913 c7 -3 16 -2 19 1 4 3 -2 6 -13 5 -11 0 -14 -3 -6 -6z"/>
<path d="M1755 3760 c-3 -5 -1 -10 4 -10 6 0 11 5 11 10 0 6 -2 10 -4 10 -3 0
-8 -4 -11 -10z"/>
<path d="M1775 3546 c-11 -7 -46 -30 -79 -51 -116 -75 -241 -208 -306 -328
-29 -54 -31 -60 -16 -80 35 -50 46 -59 61 -53 9 3 13 2 10 -4 -3 -6 1 -13 9
-16 9 -3 16 -11 16 -18 0 -6 9 -20 21 -29 17 -15 24 -16 37 -6 14 11 15 11 5
-1 -15 -17 -17 -34 -3 -25 6 3 10 0 10 -8 0 -8 7 -18 16 -21 14 -5 14 -9 3
-24 -11 -14 -11 -15 1 -4 19 17 30 15 30 -5 0 -15 2 -14 14 2 13 18 14 18 9
-7 -4 -20 0 -30 16 -40 12 -7 21 -17 21 -21 0 -5 11 -18 25 -28 15 -13 22 -26
19 -37 -4 -12 -3 -13 3 -4 7 9 15 5 33 -15 14 -16 24 -31 22 -35 -1 -5 2 -7 7
-5 12 3 71 -60 63 -68 -4 -4 -2 -5 3 -3 12 3 56 -36 74 -67 12 -19 12 -19 6
-1 -5 18 -4 19 12 4 20 -17 47 -13 37 5 -5 8 -2 8 7 0 7 -7 18 -13 23 -13 6 0
4 5 -4 10 -12 8 -10 10 8 10 13 0 21 4 17 10 -3 5 -13 7 -23 4 -14 -5 -14 -4
-2 4 8 6 18 8 22 6 4 -3 8 0 8 6 0 6 4 9 8 6 5 -3 9 2 9 10 0 8 -6 13 -12 10
-8 -3 -10 4 -7 20 2 13 9 24 16 24 6 0 4 5 -4 10 -13 8 -13 10 -1 10 11 0 10
4 -4 13 -13 10 -15 16 -6 21 6 4 9 11 6 16 -3 5 0 12 7 16 7 4 10 4 6 0 -3 -4
22 -36 58 -71 35 -34 64 -68 64 -75 0 -8 3 -10 6 -7 9 9 45 -33 38 -44 -3 -5
3 -6 12 -2 14 5 16 3 11 -11 -4 -10 -3 -15 3 -11 14 9 72 -54 63 -68 -4 -6 -1
-7 7 -2 8 5 19 1 28 -11 13 -17 14 -17 8 -1 -3 10 -2 16 3 12 5 -3 12 1 15 7
3 7 3 2 -1 -12 -5 -22 -4 -23 11 -11 9 8 14 16 12 19 -10 9 15 43 26 36 7 -4
8 -3 4 4 -4 7 -15 12 -24 12 -13 0 -12 5 8 21 24 20 24 20 2 9 -13 -6 -26 -9
-30 -6 -3 3 -3 6 1 6 3 0 -6 13 -21 29 -15 15 -30 26 -34 24 -4 -2 -10 2 -14
8 -5 8 -2 10 7 5 8 -4 2 2 -14 14 -15 12 -24 27 -21 32 4 7 2 8 -4 4 -6 -4
-17 2 -24 14 -7 11 -19 20 -27 20 -11 0 -9 5 5 22 16 19 16 21 1 9 -15 -12
-20 -11 -38 7 -12 13 -15 22 -7 22 6 0 3 7 -8 16 -18 14 -18 15 4 4 12 -6 22
-9 22 -6 0 3 11 -5 25 -18 14 -13 25 -30 25 -38 0 -9 8 -22 18 -29 14 -11 15
-11 5 1 -7 8 -13 18 -13 23 0 5 12 -6 28 -24 15 -18 26 -37 24 -42 -2 -5 5 -7
14 -3 12 4 15 2 10 -9 -3 -8 0 -14 7 -12 7 1 11 -4 9 -11 -1 -8 2 -11 7 -7 6
3 19 -3 31 -15 11 -11 25 -20 30 -20 9 0 15 -22 11 -43 -1 -5 3 -6 9 -2 6 3 8
11 5 16 -4 5 -1 9 5 9 6 0 8 6 4 13 -4 6 -4 9 1 5 4 -4 14 -3 22 3 11 10 11
15 1 27 -10 13 -10 14 0 8 8 -5 12 0 12 14 0 12 -4 19 -9 15 -6 -3 -21 11 -35
32 -15 21 -26 35 -26 31 0 -3 -21 14 -46 39 -37 36 -44 47 -33 55 11 8 10 9
-4 4 -18 -6 -65 31 -59 47 1 5 -1 6 -6 4 -4 -3 -25 12 -47 34 -21 21 -33 39
-27 39 7 0 12 -4 12 -8 0 -5 7 -9 15 -9 11 0 14 7 10 21 -6 20 -5 20 7 -1 10
-16 17 -20 28 -13 9 6 20 4 29 -3 12 -9 13 -9 7 1 -4 6 -2 12 3 12 6 0 11 -5
11 -10 0 -7 6 -7 18 -2 9 5 24 7 32 5 13 -4 13 -3 1 5 -8 6 -21 8 -30 6 -20
-6 17 12 41 20 11 3 16 13 13 26 -4 19 -2 20 12 8 15 -12 15 -11 4 10 -7 12
-16 20 -20 18 -4 -3 -8 1 -8 8 0 8 7 12 16 10 9 -3 6 1 -6 7 -13 7 -23 16 -23
21 0 4 -7 8 -16 8 -8 0 -12 5 -9 10 3 6 1 10 -5 10 -6 0 -8 5 -5 10 4 6 3 9
-2 8 -13 -4 -179 164 -175 176 2 6 0 8 -4 4 -4 -4 -22 6 -41 22 -19 17 -39 27
-45 24 -7 -4 -8 -2 -4 4 4 7 2 12 -4 12 -6 0 -9 4 -6 9 3 5 -1 14 -9 21 -8 7
-12 16 -9 21 3 5 2 9 -3 8 -25 -4 -41 4 -48 24 -4 12 -7 25 -6 30 1 4 -2 6 -6
5 -11 -2 -63 20 -63 27 0 4 4 4 8 1 5 -3 9 1 9 8 0 8 -7 12 -15 8 -9 -3 -13
-1 -9 5 4 6 0 14 -9 17 -8 3 -12 11 -8 17 4 7 3 9 -3 6 -6 -4 -16 0 -23 8 -15
18 -38 18 -65 1z m230 -560 c13 -20 14 -29 5 -46 -19 -36 -89 -48 -76 -13 3 8
2 11 -3 8 -5 -3 -12 -1 -16 5 -3 5 0 10 8 10 8 0 14 8 13 18 -1 13 7 17 31 17
24 0 29 3 21 12 -6 7 -8 13 -4 13 3 0 13 -11 21 -24z"/>
<path d="M3141 3525 c-24 -28 -29 -40 -22 -54 6 -9 56 -64 113 -121 57 -56
102 -107 101 -111 -3 -8 12 -13 29 -10 5 0 7 -5 5 -12 -1 -6 4 -11 11 -10 6 2
12 -4 12 -12 0 -8 4 -15 10 -15 5 0 16 -12 24 -27 9 -16 16 -22 16 -13 0 8 7
3 16 -13 8 -15 19 -25 25 -22 5 4 8 1 7 -7 -2 -7 3 -12 10 -10 6 1 12 -3 12
-8 0 -6 12 -22 26 -35 21 -19 24 -27 15 -42 -9 -14 -11 -14 -9 -2 2 9 -18 37
-44 62 -27 25 -48 51 -48 57 0 5 -5 9 -12 8 -6 -2 -17 8 -25 22 -7 14 -13 22
-13 18 0 -12 -110 101 -110 114 0 6 -3 8 -7 5 -3 -4 -14 4 -23 19 -10 14 -21
26 -26 27 -5 1 -8 5 -7 9 2 4 -6 9 -16 13 -10 3 -24 17 -31 30 -7 14 -19 25
-27 25 -7 0 -13 4 -13 8 0 4 -14 16 -31 26 -29 17 -31 17 -50 0 -26 -23 -25
-28 16 -73 19 -21 35 -44 35 -50 0 -6 4 -11 9 -11 12 0 111 -99 111 -110 0 -5
9 -11 19 -15 11 -3 23 -15 26 -26 4 -10 10 -17 14 -15 4 3 8 -2 8 -11 0 -13
-3 -13 -16 3 -9 11 -20 22 -26 25 -5 2 -9 7 -8 11 2 4 -6 10 -17 13 -11 4 -20
11 -20 16 0 16 -27 39 -35 31 -4 -4 -5 0 -3 8 2 8 -2 14 -9 13 -6 -2 -15 6
-18 17 -4 11 -11 18 -16 14 -5 -3 -15 8 -22 25 -7 17 -17 28 -22 24 -4 -5 -5
-2 0 6 5 9 3 12 -6 9 -8 -3 -25 5 -39 18 -24 22 -27 23 -48 8 -27 -19 -28 -45
-2 -69 11 -10 22 -26 25 -36 4 -10 10 -18 14 -16 11 3 71 -60 71 -73 0 -6 4
-9 10 -5 5 3 16 -7 24 -22 8 -15 15 -24 16 -18 0 12 70 -62 70 -75 0 -6 3 -9
8 -8 9 3 62 -43 62 -55 0 -5 -6 -7 -12 -4 -7 2 -12 10 -10 16 1 6 -3 11 -8 11
-14 0 -76 60 -72 71 1 5 -3 9 -9 9 -14 0 -115 100 -111 111 1 5 -3 9 -8 9 -6
0 -31 20 -58 45 -26 25 -53 45 -61 45 -18 0 -301 -283 -301 -302 0 -9 7 -21
15 -28 8 -7 12 -17 8 -23 -3 -6 -1 -7 5 -3 8 4 16 -3 22 -18 5 -14 15 -26 22
-26 9 0 8 3 -2 10 -11 7 -11 10 -2 10 7 0 16 -10 21 -22 6 -18 9 -19 14 -5 4
10 12 17 19 17 9 0 9 -3 -2 -10 -13 -8 -13 -11 -1 -22 10 -10 12 -10 7 0 -7
12 4 16 38 12 12 -1 16 2 11 12 -6 10 -5 10 5 1 7 -6 19 -9 26 -6 8 3 14 0 14
-6 0 -6 6 -8 14 -5 7 3 20 -2 29 -10 8 -8 17 -13 20 -10 2 3 19 -13 36 -34 32
-41 32 -58 -1 -41 -11 6 -17 13 -14 16 5 6 -32 38 -74 65 -16 10 -32 12 -45 7
-11 -4 -90 -77 -175 -163 -85 -86 -160 -156 -166 -156 -6 0 -19 -10 -30 -22
l-19 -23 25 20 c14 11 5 -2 -19 -27 -24 -26 -47 -46 -50 -45 -3 1 -7 -2 -7 -7
-2 -12 -245 -255 -269 -268 -26 -15 -65 -19 -65 -7 0 5 -6 8 -12 7 -7 -2 -12
4 -10 13 3 23 -48 73 -62 59 -5 -5 -18 -10 -27 -10 -9 0 -107 -90 -217 -200
-170 -171 -199 -205 -198 -229 2 -36 22 -61 44 -55 15 5 14 4 -1 -6 -18 -12
-15 -30 6 -30 7 0 6 4 -3 10 -11 7 -12 10 -2 10 22 0 38 -23 46 -65 10 -51 27
-82 70 -127 25 -27 41 -36 53 -31 16 6 17 5 3 -12 -9 -11 -10 -16 -2 -11 6 4
12 2 12 -3 0 -6 4 -11 10 -11 5 0 7 8 3 18 -3 11 1 9 12 -6 12 -17 20 -21 28
-13 14 14 30 14 21 0 -4 -8 1 -9 16 -4 15 5 20 4 16 -4 -8 -12 28 -64 37 -54
4 3 9 -2 13 -11 5 -14 9 -14 22 -4 9 8 13 8 9 2 -4 -7 3 -14 17 -16 17 -4 23
-1 19 9 -3 7 -10 10 -16 6 -6 -3 -7 -1 -3 6 6 9 11 9 22 0 11 -9 14 -8 14 7 0
16 2 17 10 4 8 -13 10 -12 10 3 0 12 4 16 13 11 7 -5 6 0 -3 11 -14 17 -14 18
8 6 22 -12 23 -11 13 8 -12 21 2 40 15 20 5 -8 3 -9 -6 -4 -9 5 -11 4 -6 -4
10 -15 27 -4 20 13 -3 8 0 17 7 22 8 4 10 3 5 -4 -4 -7 -2 -12 3 -12 10 0 16
22 12 43 -1 5 3 6 9 2 6 -3 8 -11 5 -16 -3 -5 1 -6 10 -2 12 4 13 8 5 13 -8 5
-7 12 5 24 9 9 21 14 26 11 5 -4 6 1 3 9 -3 9 -1 16 5 16 6 0 11 -6 11 -12 0
-9 3 -9 9 1 5 8 7 20 4 27 -2 6 1 15 8 20 8 4 10 3 5 -4 -4 -7 -5 -12 -2 -12
3 0 13 15 21 33 8 17 13 24 11 15 -3 -10 0 -20 6 -24 6 -4 8 -3 4 4 -3 6 -2
13 4 17 6 4 7 11 4 17 -5 7 -1 9 9 5 13 -5 17 -1 17 14 0 11 5 17 10 14 6 -3
10 -1 10 5 0 6 5 8 13 4 9 -6 9 -4 -1 8 -11 13 -10 16 4 14 9 0 19 5 22 13 3
9 0 11 -9 6 -8 -5 -11 -4 -6 0 4 5 17 10 29 12 30 5 33 10 17 30 -8 9 -9 14
-3 10 12 -7 25 14 29 46 2 20 -11 23 -19 5 -4 -7 -4 -3 -2 10 2 12 0 19 -5 16
-5 -3 -12 1 -15 10 -3 8 -19 19 -35 25 -29 10 -37 25 -19 36 6 3 7 -1 4 -12
-5 -15 -4 -15 7 1 9 15 9 21 1 24 -7 2 -12 8 -12 13 0 6 5 7 12 3 7 -5 9 -2 5
9 -4 12 -2 14 10 10 13 -5 15 -2 11 15 -4 15 -2 19 8 15 8 -3 11 -10 7 -16 -3
-6 -1 -7 6 -3 6 4 9 12 6 17 -4 5 -1 9 5 9 6 0 8 5 5 10 -3 6 -1 10 4 10 6 0
11 5 11 11 0 5 -5 7 -12 3 -6 -4 -8 -3 -5 4 4 5 18 9 32 8 21 -3 23 -1 14 15
-12 24 -6 24 17 2 17 -17 18 -17 11 0 -3 9 -2 17 4 17 6 0 7 4 4 10 -3 6 -1
10 4 10 6 0 11 5 11 11 0 5 -5 7 -12 3 -6 -4 -8 -3 -5 4 4 5 18 9 32 8 15 -2
22 1 18 7 -4 7 1 8 13 4 14 -5 13 -2 -6 13 l-25 20 27 -9 c20 -8 28 -7 32 4 3
10 0 12 -12 9 -12 -4 -11 -2 3 7 28 17 55 50 50 59 -3 5 4 6 15 3 15 -4 20 0
20 15 0 26 16 37 24 16 4 -10 2 -13 -7 -7 -6 4 14 -20 46 -52 31 -33 57 -67
57 -75 0 -13 1 -13 10 0 7 11 10 12 10 2 0 -8 16 -28 35 -45 41 -36 43 -43 14
-50 -17 -5 -18 -3 -8 10 11 12 10 14 -2 13 -7 -1 -21 -2 -29 -1 -13 1 -13 2 0
11 12 8 12 10 1 10 -8 0 -28 15 -46 33 -17 17 -51 49 -75 70 l-43 38 -29 -32
-29 -32 38 -41 c21 -22 41 -42 46 -44 4 -2 7 -11 7 -19 0 -9 2 -14 5 -11 7 7
75 -58 75 -71 0 -5 5 -11 11 -13 20 -7 20 -65 -1 -90 -15 -17 -22 -20 -28 -10
-6 9 -14 6 -32 -13 -13 -14 -18 -25 -12 -25 7 0 12 -11 12 -24 0 -14 5 -28 10
-31 6 -4 7 -12 4 -18 -4 -7 -4 -9 0 -5 9 8 45 -24 39 -34 -2 -5 3 -8 12 -8 11
0 15 -5 12 -14 -3 -8 1 -13 11 -12 10 1 16 -6 16 -16 -1 -10 2 -15 7 -12 5 3
9 0 9 -7 0 -7 3 -9 6 -6 7 7 44 -30 44 -45 0 -4 6 -8 13 -8 19 0 50 -37 42
-50 -3 -6 -1 -9 7 -8 7 2 12 -3 10 -10 -1 -6 4 -11 10 -10 7 2 12 -3 10 -10
-1 -8 1 -11 6 -8 10 6 78 -64 74 -76 -1 -4 2 -7 7 -6 5 2 18 -8 29 -20 12 -13
26 -21 32 -17 5 3 13 -1 16 -10 5 -13 9 -13 22 -3 12 10 14 10 8 1 -4 -8 -2
-13 4 -13 6 0 8 -5 4 -12 -4 -7 -3 -8 5 -4 6 4 8 12 5 18 -5 7 -1 9 8 5 9 -3
23 2 32 12 14 15 14 18 1 18 -8 0 -11 -5 -8 -10 3 -6 1 -7 -6 -3 -8 6 -9 12
-2 20 6 7 8 15 6 18 -3 3 5 4 19 3 14 -2 27 3 30 11 4 10 2 12 -6 8 -7 -4 -8
-3 -4 5 6 9 11 9 24 -1 12 -10 14 -10 8 0 -4 7 -2 13 6 14 7 0 18 2 23 2 6 1
16 5 24 10 10 6 12 5 7 -2 -4 -7 -2 -12 3 -12 6 0 11 5 11 10 0 6 5 10 11 10
5 0 7 -5 3 -12 -4 -7 -3 -8 5 -4 6 4 8 12 5 18 -5 8 -1 9 10 5 9 -4 14 -3 11
2 -3 5 -1 12 5 16 6 4 7 11 4 17 -4 7 -2 8 4 4 19 -11 35 3 22 19 -8 10 -8 15
1 21 8 5 9 3 4 -6 -6 -9 -4 -11 4 -6 7 5 10 14 7 22 -3 8 -1 14 5 14 6 0 7 5
4 10 -4 6 -11 7 -17 4 -7 -4 -8 -2 -4 5 4 6 16 9 26 6 10 -3 21 -2 24 3 3 6
-2 9 -10 8 -24 -2 -27 35 -3 41 18 5 19 6 2 19 -17 13 -17 14 1 7 13 -4 17 -3
13 4 -5 7 0 9 13 6 11 -3 17 -10 13 -16 -3 -6 -1 -7 6 -3 9 6 9 11 0 22 -13
16 1 19 19 4 6 -6 10 -7 7 -4 -3 4 0 13 7 21 8 10 8 12 -3 8 -10 -4 -15 1 -15
14 0 16 3 18 15 8 12 -10 12 -9 1 10 -8 12 -18 19 -24 16 -5 -3 -6 -1 -2 6 5
7 -1 20 -13 30 -22 19 -29 37 -9 25 7 -5 8 -3 4 5 -5 7 -10 10 -13 7 -11 -11
-44 16 -39 30 3 8 1 12 -4 9 -5 -3 -20 3 -32 15 -21 20 -21 21 -3 15 11 -3 5
2 -13 10 -22 10 -32 21 -28 30 3 10 0 12 -11 8 -13 -5 -15 -2 -10 11 4 10 3
15 -3 11 -6 -3 -13 1 -16 9 -3 9 -10 13 -15 10 -5 -3 -9 2 -9 11 0 9 -4 13
-10 10 -9 -6 -14 7 -11 27 0 4 -6 5 -15 1 -10 -4 -17 1 -21 15 -2 11 -14 23
-25 25 -13 4 -19 11 -15 21 4 11 1 13 -10 9 -13 -5 -15 -2 -10 11 4 10 3 15
-3 11 -6 -3 -13 1 -16 9 -3 9 -10 16 -15 16 -6 0 -19 8 -30 19 -12 11 -29 17
-40 14 -11 -3 -19 0 -19 8 0 7 -10 3 -25 -11 -17 -16 -22 -27 -15 -35 22 -26
-39 -50 -87 -34 -34 11 -42 23 -20 33 6 3 1 3 -12 0 -20 -5 -23 -3 -18 10 4
10 3 14 -3 11 -13 -8 -92 73 -84 87 5 7 3 8 -5 4 -8 -5 -27 8 -51 33 l-39 41
32 1 c18 0 26 3 20 6 -20 7 -15 23 5 16 15 -6 16 -5 2 12 -14 17 -14 18 9 6
15 -8 21 -9 17 -2 -4 6 -2 11 4 11 6 0 8 5 5 10 -3 6 -1 10 4 10 6 0 11 5 11
11 0 5 -5 7 -12 3 -6 -4 -8 -3 -5 4 4 5 18 9 32 7 22 -2 23 0 13 13 -10 13
-10 14 0 8 11 -7 17 5 13 27 -1 4 9 2 21 -4 20 -11 21 -10 10 3 -17 21 8 44
28 25 10 -9 11 -9 6 1 -4 6 -2 12 5 12 8 0 7 5 -2 17 -13 15 -12 15 10 4 15
-8 21 -9 17 -2 -4 6 -2 11 4 11 6 0 8 5 5 10 -3 6 -1 10 4 10 6 0 11 5 11 11
0 5 -5 7 -12 3 -6 -4 -8 -3 -5 4 4 5 18 9 31 8 19 -2 23 1 21 15 -2 9 3 20 11
23 8 3 14 13 14 21 0 9 -5 13 -10 10 -6 -4 -7 -11 -4 -17 4 -7 2 -8 -5 -4 -6
4 -8 13 -4 19 12 18 10 31 -5 42 -10 8 -9 11 7 12 14 1 19 -3 16 -18 -2 -10 1
-19 6 -19 6 0 9 -25 8 -60 -2 -44 2 -65 14 -78 10 -10 14 -22 10 -27 -5 -4 -2
-5 5 -1 7 4 12 1 12 -8 0 -8 5 -18 12 -22 7 -5 8 -3 3 5 -6 10 -3 11 12 2 11
-6 24 -7 28 -3 3 4 6 3 5 -3 -1 -5 -2 -16 -1 -24 1 -11 4 -10 14 4 9 11 19 15
27 10 9 -6 11 -4 5 5 -6 10 -4 12 7 8 12 -5 15 0 12 25 -1 18 0 26 3 20 6 -16
33 -17 33 -2 0 5 -6 7 -12 3 -9 -5 -8 -2 1 10 11 13 16 14 23 4 6 -8 7 -3 4
17 -4 18 -3 25 2 17 9 -14 42 -6 42 10 0 6 -8 4 -17 -3 -16 -13 -17 -12 -4 4
8 10 19 16 25 14 11 -4 36 16 36 29 0 5 -5 3 -12 -4 -7 -7 -17 -12 -22 -12 -6
0 -3 5 7 11 9 6 15 15 11 21 -4 6 3 5 16 -2 20 -11 22 -10 17 4 -4 10 -1 16 8
16 8 0 15 4 15 9 0 5 9 13 20 16 11 3 20 11 20 18 0 8 -3 8 -12 -1 -20 -20
-30 -14 -10 6 9 11 22 15 28 11 7 -6 11 6 12 34 2 33 0 39 -9 27 -9 -13 -10
-13 -6 2 7 19 -15 42 -29 30 -5 -4 -6 -3 -2 1 3 5 -12 26 -34 47 -25 23 -36
40 -29 44 6 4 19 -7 31 -26 11 -18 20 -29 20 -24 0 6 16 -7 35 -28 22 -24 39
-35 47 -30 10 6 11 5 1 -7 -11 -13 -9 -15 6 -14 29 2 55 26 39 36 -7 4 -9 11
-5 15 3 4 14 1 24 -7 14 -11 13 -9 -2 12 -11 15 -23 25 -28 22 -4 -2 -7 -1 -6
4 3 19 -2 33 -10 31 -5 -2 -20 11 -33 28 -13 17 -26 32 -30 33 -20 6 -85 78
-81 89 3 9 13 3 27 -17 13 -17 26 -27 30 -23 4 4 6 3 4 -3 -4 -13 49 -65 58
-56 4 3 4 1 1 -6 -7 -12 61 -60 77 -55 5 2 4 -4 -4 -12 -8 -11 -9 -16 -1 -16
18 0 26 4 23 13 -1 4 7 7 18 7 20 0 24 9 21 42 -2 19 34 42 55 34 13 -5 19 6
15 27 -1 5 7 6 17 3 12 -4 19 -1 19 8 0 9 -5 12 -10 9 -6 -4 -8 0 -4 10 3 9 1
19 -5 23 -7 5 -5 12 8 22 16 12 16 14 2 9 -20 -7 -38 19 -30 42 2 8 0 11 -5 8
-6 -4 -19 3 -29 16 -19 21 -19 21 0 7 19 -15 19 -14 2 12 -9 14 -24 29 -32 32
-8 3 -14 13 -14 21 0 10 -5 13 -12 9 -8 -5 -9 -2 -5 9 3 10 2 17 -4 17 -16 0
-39 26 -39 44 0 9 -5 16 -11 16 -5 0 -7 -5 -3 -12 5 -7 3 -8 -5 -4 -7 5 -10
15 -7 23 4 8 2 11 -5 7 -6 -3 -29 11 -50 32 -47 47 -78 75 -81 72 -2 -1 -22
11 -46 26 -42 26 -85 46 -102 46 -4 0 -22 -16 -39 -35z m-51 -535 c8 -5 11
-10 5 -10 -6 0 -5 -4 1 -8 17 -11 -2 -51 -28 -61 -29 -11 -51 -3 -44 16 3 8 1
11 -4 8 -6 -3 -10 -2 -10 4 0 5 5 13 10 16 6 4 7 11 4 17 -5 7 2 9 20 6 14 -3
29 -1 33 5 3 6 1 7 -5 3 -7 -4 -12 -2 -12 3 0 13 10 14 30 1z m465 -20 c-3 -5
-12 -10 -18 -10 -7 0 -6 4 3 10 19 12 23 12 15 0z m-85 -94 c0 -3 -4 -8 -10
-11 -5 -3 -10 -1 -10 4 0 6 5 11 10 11 6 0 10 -2 10 -4z m-695 -195 c3 -5 2
-12 -3 -15 -5 -3 -9 1 -9 9 0 17 3 19 12 6z m-21 -30 c3 -5 -2 -15 -12 -22
-15 -12 -16 -12 -5 2 7 9 10 19 6 22 -3 4 -4 7 0 7 3 0 8 -4 11 -9z m-59 -50
c3 -5 2 -12 -3 -15 -5 -3 -9 1 -9 9 0 17 3 19 12 6z m-120 -120 c3 -5 2 -12
-3 -15 -5 -3 -9 1 -9 9 0 17 3 19 12 6z m-21 -30 c3 -5 -2 -15 -12 -22 -15
-12 -16 -12 -5 2 7 9 10 19 6 22 -3 4 -4 7 0 7 3 0 8 -4 11 -9z m-59 -50 c3
-5 2 -12 -3 -15 -5 -3 -9 1 -9 9 0 17 3 19 12 6z m167 -47 c-9 -7 -19 -10 -22
-8 -2 3 2 9 10 14 8 6 11 10 7 10 -5 0 -5 5 -1 11 4 8 9 7 15 -2 4 -8 1 -18
-9 -25z m-207 7 c3 -5 2 -12 -3 -15 -5 -3 -9 1 -9 9 0 17 3 19 12 6z m-21 -30
c3 -5 -2 -15 -12 -22 -15 -12 -16 -12 -5 2 7 9 10 19 6 22 -3 4 -4 7 0 7 3 0
8 -4 11 -9z m-80 -80 c3 -5 -2 -15 -12 -22 -15 -12 -16 -12 -5 2 7 9 10 19 6
22 -3 4 -4 7 0 7 3 0 8 -4 11 -9z m-368 -273 c-11 19 14 14 32 -6 10 -10 13
-12 8 -5 -17 25 -1 20 26 -8 15 -16 24 -29 20 -29 -4 0 0 -4 8 -10 20 -12 18
-106 -3 -147 -29 -54 -73 -78 -145 -78 -49 0 -67 4 -76 17 -7 10 -16 15 -19
11 -4 -3 -7 1 -7 10 0 9 -9 21 -21 27 -14 8 -18 17 -14 28 13 33 14 56 4 63
-8 4 -6 15 6 33 9 14 22 23 28 19 6 -4 7 -1 3 6 -5 7 -15 10 -25 7 -12 -5 -11
-2 3 9 11 8 24 15 29 15 4 0 6 4 2 9 -3 6 5 8 19 5 15 -2 29 3 37 14 13 15 12
16 -3 3 -10 -7 -18 -9 -18 -3 0 13 19 19 52 18 23 -1 25 1 15 14 -6 8 2 4 17
-10 16 -14 26 -19 22 -12z m1124 10 c25 3 40 0 40 -7 0 -6 6 -11 13 -11 16 0
45 -34 58 -66 38 -101 -42 -214 -152 -214 -26 0 -51 5 -54 10 -4 6 -11 8 -16
5 -5 -4 -12 1 -15 9 -3 9 -11 16 -18 16 -6 0 -19 14 -28 30 -19 33 -13 40 9
13 13 -16 13 -16 4 3 -6 12 -7 25 -3 29 4 5 2 6 -3 2 -6 -3 -16 3 -23 14 -9
14 -9 18 -1 17 6 -2 14 3 16 10 3 8 -1 10 -14 5 -17 -7 -17 -6 0 11 9 9 18 22
18 27 1 5 2 15 3 22 1 6 7 11 14 10 11 -3 16 10 13 30 -1 4 9 2 21 -4 21 -11
22 -11 9 5 -12 14 -12 16 4 10 13 -5 16 -4 11 4 -5 8 0 12 13 12 10 0 22 -6
25 -12 4 -9 5 -8 5 2 -1 8 0 22 1 30 2 13 3 13 6 0 4 -12 15 -14 44 -12z
m-730 -134 c0 -8 -19 -13 -24 -6 -3 5 1 9 9 9 8 0 15 -2 15 -3z m-587 -29 c-3
-9 -8 -14 -10 -11 -3 3 -2 9 2 15 9 16 15 13 8 -4z"/>
<path d="M1838 1923 c7 -3 16 -2 19 1 4 3 -2 6 -13 5 -11 0 -14 -3 -6 -6z"/>
<path d="M1800 1780 c0 -5 5 -10 11 -10 5 0 7 5 4 10 -3 6 -8 10 -11 10 -2 0
-4 -4 -4 -10z"/>
<path d="M2953 1905 c0 -8 4 -12 9 -9 5 3 6 10 3 15 -9 13 -12 11 -12 -6z"/>
<path d="M1475 3520 c3 -5 8 -10 11 -10 2 0 4 5 4 10 0 6 -5 10 -11 10 -5 0
-7 -4 -4 -10z"/>
<path d="M1405 3460 c-3 -5 -2 -10 4 -10 5 0 13 5 16 10 3 6 2 10 -4 10 -5 0
-13 -4 -16 -10z"/>
<path d="M3055 3360 c3 -5 8 -10 11 -10 2 0 4 5 4 10 0 6 -5 10 -11 10 -5 0
-7 -4 -4 -10z"/>
<path d="M1316 3342 c-3 -5 1 -9 9 -9 8 0 12 4 9 9 -3 4 -7 8 -9 8 -2 0 -6 -4
-9 -8z"/>
<path d="M2055 3341 c-3 -5 -2 -12 3 -15 5 -3 9 1 9 9 0 17 -3 19 -12 6z"/>
<path d="M1271 3276 c-8 -10 -9 -16 -1 -21 6 -4 9 -1 8 7 -2 7 3 12 10 10 8
-1 11 2 7 8 -8 13 -10 13 -24 -4z"/>
<path d="M1236 3193 c-6 -14 -5 -15 5 -6 7 7 10 15 7 18 -3 3 -9 -2 -12 -12z"/>
<path d="M3310 3106 c0 -2 8 -10 18 -17 15 -13 16 -12 3 4 -13 16 -21 21 -21
13z"/>
<path d="M1146 3031 c-4 -5 -2 -12 3 -15 5 -4 12 -2 15 3 4 5 2 12 -3 15 -5 4
-12 2 -15 -3z"/>
<path d="M3579 3003 c-13 -16 -12 -17 3 -5 9 8 23 10 29 6 8 -4 9 -3 5 4 -10
17 -21 15 -37 -5z"/>
<path d="M2235 2860 c-3 -5 -1 -10 4 -10 6 0 11 5 11 10 0 6 -2 10 -4 10 -3 0
-8 -4 -11 -10z"/>
<path d="M2015 2710 c-3 -5 -1 -10 4 -10 6 0 11 5 11 10 0 6 -2 10 -4 10 -3 0
-8 -4 -11 -10z"/>
<path d="M2020 2639 c0 -5 5 -7 10 -4 6 3 10 8 10 11 0 2 -4 4 -10 4 -5 0 -10
-5 -10 -11z"/>
<path d="M2350 2576 c0 -2 7 -9 15 -16 13 -11 14 -10 9 4 -5 14 -24 23 -24 12z"/>
<path d="M2650 2261 c0 -6 4 -13 10 -16 6 -3 7 1 4 9 -7 18 -14 21 -14 7z"/>
<path d="M2856 1627 c3 -10 9 -15 12 -12 3 3 0 11 -7 18 -10 9 -11 8 -5 -6z"/>
<path d="M3250 1502 c0 -5 7 -9 15 -9 8 0 12 4 9 9 -3 4 -9 8 -15 8 -5 0 -9
-4 -9 -8z"/>
<path d="M2759 4428 c-5 -18 -6 -38 -1 -34 7 8 12 36 6 36 -2 0 -4 -1 -5 -2z"/>
<path d="M2740 4340 c0 -6 7 -10 15 -10 8 0 15 2 15 4 0 2 -7 6 -15 10 -8 3
-15 1 -15 -4z"/>
<path d="M1790 4260 c-9 -6 -10 -10 -3 -10 6 0 15 5 18 10 8 12 4 12 -15 0z"/>
<path d="M1790 4226 c0 -2 7 -9 15 -16 13 -11 14 -10 9 4 -5 14 -24 23 -24 12z"/>
<path d="M4277 2835 c-4 -8 -3 -16 1 -19 4 -3 9 4 9 15 2 23 -3 25 -10 4z"/>
<path d="M4536 2473 c-6 -14 -5 -15 5 -6 7 7 10 15 7 18 -3 3 -9 -2 -12 -12z"/>
<path d="M4525 2440 c-3 -5 -1 -10 4 -10 6 0 11 5 11 10 0 6 -2 10 -4 10 -3 0
-8 -4 -11 -10z"/>
<path d="M4341 1582 c-7 -13 -6 -19 2 -19 7 0 13 9 13 19 0 10 -1 18 -3 18 -1
0 -7 -8 -12 -18z"/>
<path d="M3990 1371 c0 -6 4 -13 10 -16 6 -3 7 1 4 9 -7 18 -14 21 -14 7z"/>
<path d="M1886 761 c-3 -4 6 -7 19 -7 14 0 22 2 19 5 -8 8 -34 10 -38 2z"/>
<path d="M3506 685 c-11 -8 -15 -15 -9 -15 6 0 16 7 23 15 16 19 11 19 -14 0z"/>
<path d="M2743 645 c0 -8 4 -12 9 -9 5 3 6 10 3 15 -9 13 -12 11 -12 -6z"/>
<path d="M1615 641 c-3 -5 -2 -12 3 -15 5 -3 9 1 9 9 0 17 -3 19 -12 6z"/>
<path d="M1656 622 c-3 -5 1 -9 9 -9 8 0 12 4 9 9 -3 4 -7 8 -9 8 -2 0 -6 -4
-9 -8z"/>
<path d="M2743 605 c0 -8 4 -15 9 -15 4 0 8 4 8 9 0 6 -4 12 -8 15 -5 3 -9 -1
-9 -9z"/>
</g>
</svg>
